<svg height="512" viewBox="0 0 512 512" width="512" xmlns="http://www.w3.org/2000/svg"><path d="m248 232a8.009 8.009 0 0 0 -8 8v8h32v-8a8.009 8.009 0 0 0 -8-8z"/><path d="m96 160a64 64 0 1 0 -64-64 64.072 64.072 0 0 0 64 64zm-8-96a8 8 0 0 1 8 8 24.027 24.027 0 0 0 24 24 8 8 0 0 1 0 16 40.045 40.045 0 0 1 -40-40 8 8 0 0 1 8-8zm-32-8h16v64h56v16h-64a8 8 0 0 1 -8-8z"/><path d="m224 264a40 40 0 0 0 64 0z"/><path d="m96 352a64 64 0 1 0 64 64 64.072 64.072 0 0 0 -64-64zm40 80a8 8 0 0 1 -8-8v-4.687l-26.343 26.344a8 8 0 0 1 -5.657 2.343 7.914 7.914 0 0 1 -1.281-.1 8 8 0 0 1 -5.874-4.318l-11.036-22.077-16.152 16.152a8 8 0 0 1 -11.314-11.314l24-24a8 8 0 0 1 12.812 2.079l11.036 22.078 18.5-18.5h-4.691a8 8 0 0 1 0-16h24a8 8 0 0 1 8 8v24a8 8 0 0 1 -8 8z"/><path d="m417 64.805v31.195h31.2a40.118 40.118 0 0 0 -31.2-31.195z"/><path d="m409 144a40.067 40.067 0 0 0 39.2-32h-39.2a8 8 0 0 1 -8-8v-39.195a40 40 0 0 0 8 79.195z"/><path d="m296 184h20.686l-20.686-20.686z"/><path d="m440 475.313a64.019 64.019 0 0 0 16-9.406v-25.907h-16z"/><path d="m376 465.907a64.019 64.019 0 0 0 16 9.406v-51.313h-16z"/><path d="m184 152v192h144v-144h-40a8 8 0 0 1 -8-8v-40zm104 88v8h16a8 8 0 0 1 8 8v64a8 8 0 0 1 -8 8h-96a8 8 0 0 1 -8-8v-64a8 8 0 0 1 8-8h16v-8a24.027 24.027 0 0 1 24-24h16a24.027 24.027 0 0 1 24 24z"/><path d="m216 279.156v32.844h80v-32.843a55.918 55.918 0 0 1 -80 0z"/><path d="m480 416a64 64 0 1 0 -120 30.94v-30.94a8 8 0 0 1 8-8h24v-24a8 8 0 0 1 8-8h32a8 8 0 0 1 8 8v40h24a8 8 0 0 1 8 8v14.94a63.587 63.587 0 0 0 8-30.94z"/><path d="m408 479.482a62.035 62.035 0 0 0 16 0v-87.482h-16z"/><path d="m360 248h16v16h-16z"/><path d="m392 248h16v16h-16z"/><path d="m424 248h16v16h-16z"/><path d="m373.247 134.039-10.494-12.078-51.649 44.275 10.413 12.148 51.35-44.015z"/><path d="m256 49a206.263 206.263 0 0 1 110.887 32.181l8.586-13.5a223.24 223.24 0 0 0 -218.804-11.381l7.142 14.318a204.7 204.7 0 0 1 92.189-21.618z"/><path d="m56.3 156.669a223.372 223.372 0 0 0 0 198.662l14.318-7.142a207.368 207.368 0 0 1 0-184.378z"/><path d="m256 463a204.7 204.7 0 0 1 -92.189-21.619l-7.142 14.319a223.372 223.372 0 0 0 198.662 0l-7.142-14.318a204.7 204.7 0 0 1 -92.189 21.618z"/><path d="m441.381 348.189 14.318 7.142a220.583 220.583 0 0 0 23.301-99.331 8 8 0 0 0 -8-8h-15v16h6.852a204.292 204.292 0 0 1 -21.471 84.189z"/></svg>