<svg enable-background="new 0 0 512 512" height="512" viewBox="0 0 512 512" width="512" xmlns="http://www.w3.org/2000/svg"><path d="m40 128h16v48h-16z"/><path d="m40 368h16v48h-16z"/><path d="m210.969 241.082c-7.236 23.37-.974 49.132 16.446 66.551 15.501 15.501 37.605 22.167 58.753 18.35l-32.894-32.894 11.313-11.314 31.723 31.723c2.775-20.288-3.969-41.148-18.79-55.969-17.418-17.422-43.183-23.681-66.551-16.447z"/><path d="m256 192c-52.935 0-96 43.065-96 96s43.065 96 96 96 96-43.065 96-96-43.065-96-96-96zm53.843 157.657-10.497-10.497c-8.164 2.602-16.574 3.87-24.927 3.87-21.498 0-42.63-8.396-58.317-24.083-22.71-22.71-30.142-56.843-18.932-86.958.811-2.178 2.529-3.896 4.707-4.706 30.117-11.209 64.248-3.778 86.958 18.931 21.167 21.167 29.06 52.256 20.959 80.767l11.362 11.362z"/><path d="m480 184h-16v64h-24v-96h-104v-16h56l-24-24h-8v-24h-16v24h-128v-24h-16v24h-8l-12 24h108v16h-156.8l-19.2 32h-40v48h-16v-40h-16v56h-24v48h24v56h16v-40h16v64h40l24 40h248l16-32h40v-88h24v64h16l16-16v-144zm-360 160h-24v-16h24zm0-112h-24v-16h24zm184-96h16v16h-16zm-48 264c-61.757 0-112-50.243-112-112s50.243-112 112-112 112 50.243 112 112-50.243 112-112 112zm152-32h-16v-120h16zm0-136h-16v-16h16zm0-32h-16v-32h16z"/></svg>